<?xml version="1.0" encoding="UTF-8" standalone="no"?>
<!DOCTYPE svg PUBLIC "-//W3C//DTD SVG 1.1//EN" "http://www.w3.org/Graphics/SVG/1.1/DTD/svg11.dtd">
<svg version="1.1" xmlns="http://www.w3.org/2000/svg" xmlns:xlink="http://www.w3.org/1999/xlink" preserveAspectRatio="xMidYMid meet" viewBox="0 0 640 640" width="640" height="640"><defs><path d="M460 80L420 80L420 560L460 560L460 80Z" id="a8sDW9uUdG"></path><path d="M480 30L310 30L310 70L480 70L480 30Z" id="b2pRpT6EcM"></path><path d="M480 570L240 570L240 610L480 610L480 570Z" id="h33i5KwNei"></path><path d="M240 170C240 197.6 262.4 220 290 220C317.6 220 340 197.6 340 170C340 142.4 317.6 120 290 120C262.4 120 240 142.4 240 170Z" id="c1xlX50Ra3"></path><path d="M300 30L280 30L280 110L300 110L300 30Z" id="b6yoPfZRlg"></path><path d="M270 30L160 30L160 70L270 70L270 30Z" id="b2J98Bgl3"></path><path d="M330 80L410 160L410 80L330 80Z" id="b16JUDPZJN"></path></defs><g><g><g><g><filter id="shadow7036401" x="400.33" y="60.33" width="83.33" height="523.33" filterUnits="userSpaceOnUse" primitiveUnits="userSpaceOnUse"><feFlood></feFlood><feComposite in2="SourceAlpha" operator="in"></feComposite><feGaussianBlur stdDeviation="2.31"></feGaussianBlur><feOffset dx="4" dy="4" result="afterOffset"></feOffset><feFlood flood-color="#000000" flood-opacity="0.5"></feFlood><feComposite in2="afterOffset" operator="in"></feComposite><feMorphology operator="dilate" radius="0"></feMorphology><feComposite in2="SourceAlpha" operator="out"></feComposite></filter><path d="M460 80L420 80L420 560L460 560L460 80Z" id="b7hFllPV3r" fill="white" fill-opacity="1" filter="url(#shadow7036401)"></path></g><use xlink:href="#a8sDW9uUdG" opacity="1" fill="#000000" fill-opacity="1"></use></g><g><g><filter id="shadow8197469" x="290.33" y="10.33" width="213.33" height="83.33" filterUnits="userSpaceOnUse" primitiveUnits="userSpaceOnUse"><feFlood></feFlood><feComposite in2="SourceAlpha" operator="in"></feComposite><feGaussianBlur stdDeviation="2.31"></feGaussianBlur><feOffset dx="4" dy="4" result="afterOffset"></feOffset><feFlood flood-color="#000000" flood-opacity="0.5"></feFlood><feComposite in2="afterOffset" operator="in"></feComposite><feMorphology operator="dilate" radius="0"></feMorphology><feComposite in2="SourceAlpha" operator="out"></feComposite></filter><path d="M480 30L310 30L310 70L480 70L480 30Z" id="l2sdUNEY4b" fill="white" fill-opacity="1" filter="url(#shadow8197469)"></path></g><use xlink:href="#b2pRpT6EcM" opacity="1" fill="#000000" fill-opacity="1"></use></g><g><g><filter id="shadow14068922" x="220.33" y="550.33" width="283.33" height="83.33" filterUnits="userSpaceOnUse" primitiveUnits="userSpaceOnUse"><feFlood></feFlood><feComposite in2="SourceAlpha" operator="in"></feComposite><feGaussianBlur stdDeviation="2.31"></feGaussianBlur><feOffset dx="4" dy="4" result="afterOffset"></feOffset><feFlood flood-color="#000000" flood-opacity="0.5"></feFlood><feComposite in2="afterOffset" operator="in"></feComposite><feMorphology operator="dilate" radius="0"></feMorphology><feComposite in2="SourceAlpha" operator="out"></feComposite></filter><path d="M480 570L240 570L240 610L480 610L480 570Z" id="haFNzlv2z" fill="white" fill-opacity="1" filter="url(#shadow14068922)"></path></g><use xlink:href="#h33i5KwNei" opacity="1" fill="#000000" fill-opacity="1"></use></g><g><g><filter id="shadow172719" x="220.33" y="100.33" width="143.33" height="143.33" filterUnits="userSpaceOnUse" primitiveUnits="userSpaceOnUse"><feFlood></feFlood><feComposite in2="SourceAlpha" operator="in"></feComposite><feGaussianBlur stdDeviation="2.31"></feGaussianBlur><feOffset dx="4" dy="4" result="afterOffset"></feOffset><feFlood flood-color="#000000" flood-opacity="0.5"></feFlood><feComposite in2="afterOffset" operator="in"></feComposite><feMorphology operator="dilate" radius="0"></feMorphology><feComposite in2="SourceAlpha" operator="out"></feComposite></filter><path d="M240 170C240 197.6 262.4 220 290 220C317.6 220 340 197.6 340 170C340 142.4 317.6 120 290 120C262.4 120 240 142.4 240 170Z" id="c1WHkEJLPG" fill="white" fill-opacity="1" filter="url(#shadow172719)"></path></g><use xlink:href="#c1xlX50Ra3" opacity="1" fill="#000000" fill-opacity="1"></use></g><g><g><filter id="shadow4206147" x="260.33" y="10.33" width="63.33" height="123.33" filterUnits="userSpaceOnUse" primitiveUnits="userSpaceOnUse"><feFlood></feFlood><feComposite in2="SourceAlpha" operator="in"></feComposite><feGaussianBlur stdDeviation="2.31"></feGaussianBlur><feOffset dx="4" dy="4" result="afterOffset"></feOffset><feFlood flood-color="#000000" flood-opacity="0.5"></feFlood><feComposite in2="afterOffset" operator="in"></feComposite><feMorphology operator="dilate" radius="0"></feMorphology><feComposite in2="SourceAlpha" operator="out"></feComposite></filter><path d="M300 30L280 30L280 110L300 110L300 30Z" id="ayGpHtKGx" fill="white" fill-opacity="1" filter="url(#shadow4206147)"></path></g><use xlink:href="#b6yoPfZRlg" opacity="1" fill="#000000" fill-opacity="1"></use></g><g><g><filter id="shadow5191321" x="140.33" y="10.33" width="153.33" height="83.33" filterUnits="userSpaceOnUse" primitiveUnits="userSpaceOnUse"><feFlood></feFlood><feComposite in2="SourceAlpha" operator="in"></feComposite><feGaussianBlur stdDeviation="2.31"></feGaussianBlur><feOffset dx="4" dy="4" result="afterOffset"></feOffset><feFlood flood-color="#000000" flood-opacity="0.5"></feFlood><feComposite in2="afterOffset" operator="in"></feComposite><feMorphology operator="dilate" radius="0"></feMorphology><feComposite in2="SourceAlpha" operator="out"></feComposite></filter><path d="M270 30L160 30L160 70L270 70L270 30Z" id="b8kuvXji" fill="white" fill-opacity="1" filter="url(#shadow5191321)"></path></g><use xlink:href="#b2J98Bgl3" opacity="1" fill="#000000" fill-opacity="1"></use></g><g><g><filter id="shadow13365665" x="310.33" y="60.33" width="123.33" height="123.33" filterUnits="userSpaceOnUse" primitiveUnits="userSpaceOnUse"><feFlood></feFlood><feComposite in2="SourceAlpha" operator="in"></feComposite><feGaussianBlur stdDeviation="2.31"></feGaussianBlur><feOffset dx="4" dy="4" result="afterOffset"></feOffset><feFlood flood-color="#000000" flood-opacity="0.5"></feFlood><feComposite in2="afterOffset" operator="in"></feComposite><feMorphology operator="dilate" radius="0"></feMorphology><feComposite in2="SourceAlpha" operator="out"></feComposite></filter><path d="M330 80L410 160L410 80L330 80Z" id="ecWCRPAZI" fill="white" fill-opacity="1" filter="url(#shadow13365665)"></path></g><use xlink:href="#b16JUDPZJN" opacity="1" fill="#000000" fill-opacity="1"></use></g></g></g></svg>